<svg xmlns="http://www.w3.org/2000/svg" xmlns:xlink="http://www.w3.org/1999/xlink" width="472" zoomAndPan="magnify" viewBox="0 0 354 353.999987" height="472" preserveAspectRatio="xMidYMid meet" version="1.0"><defs><clipPath id="cf43a4da19"><path d="M 106.441406 107.4375 L 247.71875 107.4375 L 247.71875 246.1875 L 106.441406 246.1875 Z M 106.441406 107.4375 " clip-rule="nonzero"/></clipPath></defs><g clip-path="url(#cf43a4da19)"><path fill="#84c61c" d="M 241.175781 188.082031 C 241.847656 184.269531 247.722656 180.824219 247.722656 176.820312 C 247.722656 172.8125 241.847656 169.371094 241.175781 165.554688 C 240.488281 161.632812 244.8125 156.398438 243.476562 152.742188 C 242.117188 149.019531 235.414062 147.785156 233.449219 144.398438 C 231.464844 140.984375 233.726562 134.582031 231.195312 131.578125 C 228.652344 128.566406 221.933594 129.679688 218.910156 127.148438 C 215.894531 124.625 215.835938 117.839844 212.40625 115.859375 C 209.011719 113.902344 203.082031 117.230469 199.34375 115.875 C 195.671875 114.542969 193.285156 108.183594 189.347656 107.496094 C 185.519531 106.832031 181.101562 111.984375 177.082031 111.984375 C 173.0625 111.984375 168.644531 106.832031 164.816406 107.496094 C 160.878906 108.183594 158.488281 114.542969 154.816406 115.875 C 151.082031 117.230469 145.152344 113.902344 141.753906 115.859375 C 138.324219 117.839844 138.269531 124.625 135.253906 127.148438 C 132.226562 129.679688 125.507812 128.566406 122.96875 131.578125 C 120.433594 134.582031 122.695312 140.984375 120.710938 144.398438 C 118.746094 147.785156 112.042969 149.019531 110.683594 152.742188 C 109.347656 156.398438 113.675781 161.632812 112.984375 165.554688 C 112.3125 169.371094 106.441406 172.8125 106.441406 176.820312 C 106.441406 180.824219 112.3125 184.269531 112.984375 188.082031 C 113.675781 192.003906 109.347656 197.238281 110.683594 200.898438 C 112.042969 204.621094 118.746094 205.855469 120.710938 209.238281 C 122.695312 212.65625 120.433594 219.054688 122.96875 222.058594 C 125.507812 225.074219 132.226562 223.957031 135.253906 226.488281 C 138.269531 229.011719 138.324219 235.800781 141.753906 237.777344 C 145.152344 239.738281 151.082031 236.40625 154.816406 237.761719 C 158.488281 239.09375 160.878906 245.453125 164.816406 246.140625 C 168.644531 246.808594 173.0625 241.65625 177.082031 241.65625 C 181.101562 241.65625 185.519531 246.808594 189.347656 246.140625 C 193.285156 245.453125 195.671875 239.09375 199.34375 237.761719 C 203.082031 236.40625 209.007812 239.738281 212.40625 237.777344 C 215.835938 235.800781 215.894531 229.011719 218.910156 226.488281 C 221.933594 223.957031 228.652344 225.074219 231.195312 222.058594 C 233.726562 219.054688 231.464844 212.65625 233.449219 209.238281 C 235.414062 205.855469 242.117188 204.621094 243.476562 200.898438 C 244.8125 197.238281 240.488281 192.003906 241.175781 188.082031 " fill-opacity="1" fill-rule="nonzero"/></g><path fill="#ffffff" d="M 161.125 204.722656 L 141.738281 184.019531 C 140.417969 182.683594 139.964844 179.269531 141.820312 176.800781 C 143.324219 174.800781 148.042969 173.652344 150.558594 175.558594 C 150.632812 175.617188 166.636719 187.972656 166.636719 187.972656 C 166.648438 187.988281 166.671875 187.988281 166.683594 187.972656 L 202.558594 154.546875 C 205.050781 152.0625 209.078125 152.03125 211.609375 154.472656 C 214.195312 156.960938 214.238281 161.082031 211.703125 163.625 L 172.210938 204.738281 C 169.15625 207.804688 164.171875 207.796875 161.125 204.722656 " fill-opacity="1" fill-rule="nonzero"/></svg>